<?xml version="1.0" standalone="no"?>
<!DOCTYPE svg PUBLIC "-//W3C//DTD SVG 20010904//EN"
 "http://www.w3.org/TR/2001/REC-SVG-20010904/DTD/svg10.dtd">
<svg version="1.0" xmlns="http://www.w3.org/2000/svg"
 width="512.000000pt" height="512.000000pt" viewBox="0 0 512.000000 512.000000"
 preserveAspectRatio="xMidYMid meet">
<metadata>
Created by potrace 1.14, written by Peter Selinger 2001-2017
</metadata>
<g transform="translate(0.000000,512.000000) scale(0.100000,-0.100000)"
fill="#000000" stroke="none">
<path d="M885 5114 c-119 -20 -237 -65 -340 -131 -97 -63 -333 -298 -399 -398
-194 -293 -192 -655 5 -946 26 -39 236 -258 543 -566 276 -276 502 -506 503
-510 2 -5 -228 -241 -510 -525 -436 -440 -520 -529 -561 -597 -150 -249 -165
-554 -39 -804 56 -112 87 -152 227 -295 142 -146 215 -203 324 -257 126 -62
208 -80 367 -79 122 1 151 4 228 28 210 63 239 87 814 660 276 275 506 502
510 503 5 2 238 -225 518 -503 281 -278 535 -523 565 -544 80 -55 148 -86 247
-116 77 -24 106 -27 228 -28 117 0 153 3 218 22 95 27 200 78 281 136 84 60
334 319 374 388 181 306 173 643 -21 933 -24 35 -247 267 -541 562 -275 276
-502 506 -503 510 -2 4 228 241 510 525 435 439 520 529 561 597 178 295 164
653 -38 935 -69 96 -309 325 -399 380 -281 174 -640 164 -917 -24 -30 -21
-284 -266 -565 -544 -280 -278 -513 -505 -518 -503 -4 1 -234 228 -510 503
-290 289 -527 517 -562 541 -147 99 -282 143 -455 148 -63 2 -128 1 -145 -1z
m256 -394 c35 -10 84 -32 109 -48 25 -16 330 -314 677 -662 l633 -632 637 636
c661 661 685 682 796 712 67 18 189 18 248 0 101 -31 152 -66 285 -200 134
-133 169 -184 200 -285 33 -109 8 -276 -55 -372 -17 -25 -312 -327 -656 -671
-344 -344 -625 -631 -625 -638 0 -7 281 -294 625 -638 344 -344 639 -646 656
-671 63 -96 88 -263 55 -372 -31 -101 -66 -152 -200 -285 -133 -134 -184 -169
-285 -200 -108 -33 -273 -9 -371 54 -25 16 -330 314 -677 662 l-633 632 -631
-631 c-348 -347 -652 -645 -677 -661 -67 -44 -160 -70 -251 -70 -156 0 -236
42 -407 214 -134 133 -169 184 -200 285 -33 109 -8 276 55 372 17 25 312 327
656 671 344 344 625 631 625 638 0 7 -281 294 -625 638 -344 344 -639 646
-656 671 -63 96 -88 263 -55 372 31 101 66 152 200 285 131 132 183 168 281
199 63 20 193 18 266 -5z"/>
</g>
</svg>
